<?xml version="1.0" encoding="utf-8"?>
<!-- Generator: Adobe Illustrator 25.2.1, SVG Export Plug-In . SVG Version: 6.00 Build 0)  -->
<svg version="1.1" id="Layer_1" xmlns:serif="http://www.serif.com/"
	 xmlns="http://www.w3.org/2000/svg" xmlns:xlink="http://www.w3.org/1999/xlink" x="0px" y="0px" viewBox="0 0 686 768"
	 style="enable-background:new 0 0 686 768;" xml:space="preserve">
<style type="text/css">
	.st0{fill-rule:evenodd;clip-rule:evenodd;fill:#66B4F8;}
	
		.st1{fill-rule:evenodd;clip-rule:evenodd;fill:#97D9FF;stroke:#000000;stroke-width:9.9992;stroke-linecap:round;stroke-linejoin:round;stroke-miterlimit:1.8136;stroke-opacity:0;}
	.st2{fill:none;stroke:#000000;stroke-width:11.9942;stroke-linecap:round;stroke-linejoin:round;stroke-miterlimit:1.8136;}
	
		.st3{fill-rule:evenodd;clip-rule:evenodd;fill:none;stroke:#000000;stroke-width:9.9992;stroke-linecap:round;stroke-linejoin:round;stroke-miterlimit:1.4806;}
	.st4{fill:none;stroke:#000000;stroke-width:14.0013;stroke-linecap:round;stroke-linejoin:round;stroke-miterlimit:1.8136;}
	
		.st5{fill-rule:evenodd;clip-rule:evenodd;stroke:#000000;stroke-width:8.8;stroke-linecap:round;stroke-linejoin:round;stroke-miterlimit:1.5;stroke-opacity:0;}
	
		.st6{fill-rule:evenodd;clip-rule:evenodd;stroke:#000000;stroke-width:8.65;stroke-linecap:round;stroke-linejoin:round;stroke-miterlimit:1.5;stroke-opacity:0;}
</style>
<path id="body_color_1_" class="st0" d="M668.8,445.5l-11-23.8l-24.6-19.3l-1.5-8.3l-1.2-24.7l-13.8-37l-24-20.7l-25.6,0.3
	l-17.7-35.5l-26.1-14.5l-32.1-1.1l-41.6,12.1l-7-7.1L421,240.7l-31.7-10.8l-31.9,2.4l-38.5,17.3l-10.4,9.7l-26.3-21l-18.6-2
	l-19.2,3.1l-30.9,24.2l-12.8,16l-7.1-3.4l-20-5.3l-28.9,6.4l-16.4,7l-11.6,9.1l-9.6,16.9l-3.5,17.3l-10.8-1.3l-22.7,6.4l-21.5,14.9
	l-15.2,23.2l8,41.4l-14.8,17.7l-13.5,19.4l1.2,31.7l18.5,17l25.7,10.7l-1.8,21.7l11.8,31.4l42.6,18.1l26.1-4.7l12,22l24.8,15.9
	l39.6-0.3l36.1-20.7l17.7,12.9l37.9,10.8l36.8-6.2l33.5-29.7l24,24.1l40.1,6.5l43.3-12.2l30.6-21.5l8.3,5.9l34.9,11.6l38.3-10.7
	l26.5-30l13.1-36.1l14.2,2.3l19.5-15.6l4.9-28.9L668.8,445.5z M260.6,488.2c-16.1,0-29.1-16.3-29.1-36.5s13-36.5,29.1-36.5
	s29.1,16.3,29.1,36.5S276.7,488.2,260.6,488.2z M425.4,488.2c-16.1,0-29.1-16.3-29.1-36.5s13-36.5,29.1-36.5s29.1,16.3,29.1,36.5
	S441.5,488.2,425.4,488.2z"/>
<g id="arms_color" transform="matrix(1.25947,0,0,1.25947,-112.815,-96.8124)">
	<g transform="matrix(1,0,0,1,0.548828,-1.79705)">
		<path class="st1" d="M234.4,569.6l3.7,17.3l11.2,12.5l20,8.1l24.3,3.5l31,0.9l5.6,24.5l-1.5,30.6l-3.1,11.5l-58.9,2.7l-49.1-15.4
			l-22.3-19.2l-12.7-27.9l-7.5-43.6l-1.7-37.2l24.2-2.5l11.9,20.2L234.4,569.6z"/>
	</g>
	<g transform="matrix(1,0,0,1,0.548828,-1.79705)">
		<path class="st1" d="M527.4,549.2l19,0.2l3.8,26.6l-5.2,34.6l-12.8,22l-25,25.2l-39,13l-32.3,9.1l-34-1.2l-3.3-37l8-30.7l32.9,1.5
			l26.2-8.1l14.1-11.8l11.2-23.1l3.5-27.3l12.3-0.1L527.4,549.2z"/>
	</g>
</g>
<g id="body" transform="matrix(1.25947,0,0,1.25947,-112.815,-96.8124)">
	<g transform="matrix(0.990661,-0.136345,0.136345,0.990661,-60.157,56.6549)">
		<path class="st2" d="M374.8,536.4c0,0-22.7,34.5-69,18.5c-32.9-11.4-33.6-37.5-32.9-40.1"/>
	</g>
	<g transform="matrix(0.998931,-0.0462262,0.0462262,0.998931,-12.401,15.1987)">
		<path class="st2" d="M482.1,537.7c0,0-16.1,38.8-73.2,28.7c-37.9-6.7-41.6-52.4-41.6-52.4"/>
	</g>
	<g transform="matrix(0.998931,-0.0462262,0.0462262,0.998931,-12.401,15.1987)">
		<path class="st2" d="M582.1,504.2c0,0-7.1,43.8-50,52.4c-42.9,8.6-56.2-30.5-56.7-37.5"/>
	</g>
	<g transform="matrix(0.998931,-0.0462262,0.0462262,0.998931,-12.401,15.1987)">
		<path class="st2" d="M587.1,409.2c0,0,34.1,11,28.8,62.6c-4.6,45.1-41.9,30-48.8,18.5"/>
	</g>
	<g transform="matrix(0.998931,-0.0462262,0.0462262,0.998931,-12.401,15.1987)">
		<path class="st2" d="M539.8,332.2c0,0,30.8-2,43,38.5c12.3,40.6-6.8,49.2-7.4,50.5"/>
	</g>
	<g transform="matrix(0.998931,-0.0462262,0.0462262,0.998931,-15.4673,15.4353)">
		<path class="st2" d="M342.6,279.4c0,0,36.1-32.4,78.9-10.4c28.2,14.5,27.7,49.9,27.7,50"/>
	</g>
	<g transform="matrix(0.998931,-0.0462262,0.0462262,0.998931,-11.7983,16.4674)">
		<path class="st2" d="M443.2,298.1c0,0,41.6-22.3,71-1.3c29.4,21.1,22.1,49.1,22.2,50.8"/>
	</g>
	<g transform="matrix(-0.998931,0.0462262,-0.0462262,-0.998931,823.055,824.159)">
		<path class="st2" d="M545.9,555.4c0,0-15.1,28.1-44.9,28.1c-37.3,0.1-46.3-36.9-46.3-36.9"/>
	</g>
	<g transform="matrix(-0.820309,0.571921,-0.571921,-0.820309,1021.42,450.855)">
		<path class="st2" d="M631.4,581.2c0,0-10.6,13.3-32.7,14.4c-45.9,2.3-58.8-42.6-59.3-49.5"/>
	</g>
	<g transform="matrix(-0.976837,0.213984,-0.213984,-0.976837,875.315,776.024)">
		<path class="st2" d="M657.9,522.9c0,0,6.9,33-15.3,50c-34.7,26.4-63.2-2.6-65.1-4.1"/>
	</g>
	<g transform="matrix(-0.272116,0.962264,-0.962264,-0.272116,848.727,35.0242)">
		<path class="st2" d="M621.2,566.6c0,0,8.6,37.7-22.5,43.1c-37.5,6.5-52.3-25.1-54.2-26.7"/>
	</g>
	<g transform="matrix(-0.958201,0.286094,-0.286094,-0.958201,890.016,712.432)">
		<path class="st2" d="M616.6,370.1c0,0,34.4-5.3,46.1,35.5c8.1,28.3-19.9,43.9-23.2,46.9"/>
	</g>
	<g transform="matrix(-0.977939,0.20889,-0.20889,-0.977939,872.884,766.42)">
		<path class="st2" d="M528.5,337.3c0,0,34.9-23.4,63.7-1.5c27.4,20.8,19.2,49,18.7,52"/>
	</g>
</g>
<g id="arms" transform="matrix(1.25947,0,0,1.25947,-112.815,-96.8124)">
	<g transform="matrix(1,0,0,1,1.27676,-16.5627)">
		<path class="st2" d="M546.7,567.3c0,0,6.5,71.1-34.4,99.4c-49.3,34.1-108,27.1-110.2,27.1c0,0-8.2-27.6,3.5-67.1
			c6-1.1,85.9,18.6,87.7-68.2"/>
	</g>
	<g transform="matrix(-1,0,0,1,819.661,-17.5338)">
		<path class="st2" d="M644.9,556.9c0,0,7.6,88.8-33.3,117.2c-49.3,34.1-116.5,19.8-118.7,19.8c0,0-8.2-27.6,3.5-67.1
			c6-1.1,90.8,11.8,89.5-41.9"/>
	</g>
</g>
<ellipse class="st3" cx="260.6" cy="451.7" rx="29.1" ry="36.5"/>
<ellipse class="st3" cx="425.4" cy="451.7" rx="29.1" ry="36.5"/>
<g id="antenna" transform="matrix(1.25947,0,0,1.25947,-112.815,-96.8124)">
	<g transform="matrix(1,0,0,1,0.548828,-1.79705)">
		<path class="st4" d="M429.2,271.6c0,0,18.3-100.3,69.9-119.6"/>
	</g>
	<g transform="matrix(1,0,0,1,0.548828,-1.79705)">
		<path class="st4" d="M274.6,269.2c0,0-8-115-53.3-147.4"/>
	</g>
	<g transform="matrix(0.982256,0.682873,-0.814012,1.17089,96.7107,-190.273)">
		
			<ellipse transform="matrix(5.067340e-06 1 -1 5.067340e-06 345.7799 -94.5816)" class="st5" cx="220.2" cy="125.6" rx="20" ry="14.7"/>
	</g>
	<g transform="matrix(1.14636,0.194323,-0.249775,1.47349,310.811,-63.836)">
		
			<ellipse transform="matrix(4.091421e-06 1 -1 4.091421e-06 317.9669 -88.6769)" class="st6" cx="203.3" cy="114.6" rx="21.6" ry="13.7"/>
	</g>
</g>
</svg>
