<svg version="1.1" xmlns="http://www.w3.org/2000/svg" viewBox="0 0 80 80"><g><path fill="#66b4f8" d="M67.2,15.1c-5-2.3-10.4-4-16-5c-0.1,0-0.2,0-0.3,0.1c-0.7,1.2-1.5,2.8-2,4.1c-6-0.9-12-0.9-17.9,0 c-0.5-1.3-1.3-2.9-2-4.1c-0.1-0.1-0.2-0.1-0.3-0.1c-5.6,1-11,2.7-16,5c0,0-0.1,0-0.1,0.1C2.4,30.4-0.4,45.2,1,59.9 C1,60,1,60,1.1,60.1C7.8,65,14.3,68,20.7,70c0.1,0,0.2,0,0.3-0.1c1.5-2.1,2.9-4.2,4-6.5c0.1-0.1,0-0.3-0.1-0.3 c-2.1-0.8-4.2-1.8-6.1-2.9c-0.2-0.1-0.2-0.3,0-0.4c0.4-0.3,0.8-0.6,1.2-1c0.1-0.1,0.2-0.1,0.3,0c12.8,5.9,26.7,5.9,39.4,0 c0.1,0,0.2,0,0.3,0c0.4,0.3,0.8,0.6,1.2,1c0.1,0.1,0.1,0.3,0,0.4c-2,1.1-4,2.1-6.1,2.9c-0.1,0.1-0.2,0.2-0.1,0.3 c1.2,2.3,2.5,4.5,4,6.5c0.1,0.1,0.2,0.1,0.3,0.1c6.4-2,12.9-5,19.6-9.9c0.1,0,0.1-0.1,0.1-0.2c1.6-16.9-2.7-31.6-11.6-44.7 C67.3,15.1,67.2,15.1,67.2,15.1z M27,50.9c-3.9,0-7.1-3.5-7.1-7.9s3.1-7.9,7.1-7.9s7.1,3.6,7.1,7.9C34,47.3,30.9,50.9,27,50.9z  M53.1,50.9c-3.9,0-7.1-3.5-7.1-7.9s3.1-7.9,7.1-7.9s7.1,3.6,7.1,7.9C60.1,47.3,57,50.9,53.1,50.9z"/></g></svg>