<?xml version="1.0" encoding="utf-8"?>
<!-- Generator: Adobe Illustrator 25.2.1, SVG Export Plug-In . SVG Version: 6.00 Build 0)  -->
<svg version="1.1" id="Layer_1" xmlns="http://www.w3.org/2000/svg" xmlns:xlink="http://www.w3.org/1999/xlink" x="0px" y="0px"
	 viewBox="0 0 500 500" style="enable-background:new 0 0 500 500;" xml:space="preserve">
<style type="text/css">
	.st0{fill:#CCECFF;stroke:#66B4F8;stroke-width:12;stroke-miterlimit:10;}
	.st1{fill:#97D9FF;stroke:#66B4F8;stroke-width:10;stroke-miterlimit:10;}
	.st2{fill:#93C9F8;}
	.st3{fill:#66B4F8;}
	.st4{fill:#97D9FF;stroke:#66B4F8;stroke-width:6;stroke-miterlimit:10;}
</style>
<circle class="st0" cx="250" cy="250" r="241.7"/>
<path class="st1" d="M382.8,347.6H121.2c-11.8,0-21.3-9.5-21.3-21.3V176.5c0-11.8,9.5-21.3,21.3-21.3h261.6
	c11.8,0,21.3,9.5,21.3,21.3v149.8C404.1,338.1,394.6,347.6,382.8,347.6z"/>
<path class="st2" d="M105.3,298.6v32.5c0,6.1,8,11,17.8,11h257.7c9.8,0,17.8-4.9,17.8-11v-32.5H105.3z"/>
<rect x="129.1" y="156.9" class="st3" width="21.5" height="12.1"/>
<rect x="171.7" y="156.9" class="st3" width="21.5" height="12.1"/>
<rect x="215.4" y="156.9" class="st3" width="21.5" height="12.1"/>
<rect x="258" y="156.9" class="st3" width="21.5" height="12.1"/>
<rect x="301.6" y="156.9" class="st3" width="21.5" height="12.1"/>
<rect x="345.3" y="156.9" class="st3" width="21.5" height="12.1"/>
<rect x="129.1" y="333.8" class="st3" width="21.5" height="12.1"/>
<rect x="171.7" y="333.8" class="st3" width="21.5" height="12.1"/>
<rect x="215.4" y="333.8" class="st3" width="21.5" height="12.1"/>
<rect x="258" y="333.8" class="st3" width="21.5" height="12.1"/>
<rect x="301.6" y="333.8" class="st3" width="21.5" height="12.1"/>
<rect x="345.3" y="333.8" class="st3" width="21.5" height="12.1"/>
<circle class="st4" cx="185.3" cy="228.6" r="19.9"/>
<circle class="st3" cx="193.2" cy="235.7" r="12.4"/>
<circle class="st4" cx="315.3" cy="228.6" r="19.9"/>
<circle class="st3" cx="323.2" cy="235.7" r="12.4"/>
<path class="st3" d="M324.2,207.2c0,0,4-15.7,15.1-18.4c-7.1,7-10.5,9.1-13.1,19.5L324.2,207.2z"/>
<path class="st3" d="M319.4,207.2c0,0-1.7-16.1,7.7-22.5c-4.3,9-6.7,12.2-5.5,22.8L319.4,207.2z"/>
<path class="st3" d="M177.1,207.2c0,0-4-15.7-15.1-18.4c7.1,7,10.5,9.1,13.1,19.5L177.1,207.2z"/>
<path class="st3" d="M181.9,207.2c0,0,1.7-16.1-7.7-22.5c4.3,9,6.7,12.2,5.5,22.8L181.9,207.2z"/>
<path class="st2" d="M187.5,287.3c0,0,35.9,4.4,62.2,4.4c26.4,0,62.7-4.4,62.7-4.4l0.2,8.1l-74.2,5.5l-50.7-7.2L187.5,287.3z"/>
<path class="st3" d="M320,296.8c-1.3-4.6-3.5-7.5-7.6-9.5c-20.7,7.2-59.4,7.6-62.4,7.6c-3,0-41.7-0.4-62.4-7.6
	c-4.1,2-6.4,4.9-7.6,9.5c16.3,11.4,59.5,13.1,70.1,13.1C260.5,309.9,303.7,308.2,320,296.8z"/>
</svg>
