<?xml version="1.0" encoding="utf-8"?>
<!-- Generator: Adobe Illustrator 18.0.0, SVG Export Plug-In . SVG Version: 6.00 Build 0)  -->
<!DOCTYPE svg PUBLIC "-//W3C//DTD SVG 1.1//EN" "http://www.w3.org/Graphics/SVG/1.1/DTD/svg11.dtd">
<svg version="1.1" id="Layer_1" xmlns="http://www.w3.org/2000/svg" xmlns:xlink="http://www.w3.org/1999/xlink" x="0px" y="0px"
	 viewBox="0 0 486 421" enable-background="new 0 0 486 421" xml:space="preserve">
<path id="circle_right" fill="#002B23" d="M338.7,27.4l-33.5,350.8c97.8,0,177-79.2,177-177C482.2,115,420.4,43.1,338.7,27.4z"/>
<path id="circle_middle" fill="#003329" d="M305.2,24.3v354l33.5-350.8C327.8,25.4,316.6,24.3,305.2,24.3z"/>
<path id="circle_left" fill="#003A2F" d="M305.2,4.3c-97.8,0-177,79.2-177,177s79.2,177,177,177V4.3z"/>
<g id="dots">
	<circle fill="#006B56" cx="252.2" cy="31.2" r="9.7"/>
	<circle fill="#007A63" cx="284.4" cy="31.2" r="9.7"/>
	<circle fill="#005645" cx="220" cy="63.4" r="9.7"/>
	<circle fill="#00604E" cx="252.2" cy="63.4" r="9.7"/>
	<circle fill="#006B56" cx="284.4" cy="63.4" r="9.7"/>
	<circle fill="#005645" cx="187.8" cy="95.6" r="9.7"/>
	<circle fill="#004C3D" cx="220" cy="95.6" r="9.7"/>
	<circle fill="#005645" cx="252.2" cy="95.6" r="9.7"/>
	<circle fill="#006B56" cx="284.4" cy="95.6" r="9.7"/>
	<circle fill="#006B56" cx="155.6" cy="127.8" r="9.7"/>
	<circle fill="#00604E" cx="187.8" cy="127.8" r="9.7"/>
	<circle fill="#005645" cx="220" cy="127.8" r="9.7"/>
	<circle fill="#00604E" cx="252.2" cy="127.8" r="9.7"/>
	<circle fill="#006B56" cx="284.4" cy="127.8" r="9.7"/>
	<circle fill="#007A63" cx="155.6" cy="160" r="9.7"/>
	<circle fill="#006B56" cx="187.8" cy="160" r="9.7"/>
	<circle fill="#006B56" cx="220" cy="160" r="9.7"/>
	<circle fill="#006B56" cx="252.2" cy="160" r="9.7"/>
	<circle fill="#007A63" cx="284.4" cy="160" r="9.7"/>
</g>
<g id="striped_circle">
	<defs>
		<circle id="SVGID_1_" cx="83.8" cy="373.9" r="44.3"/>
	</defs>
	<clipPath id="SVGID_2_">
		<use xlink:href="#SVGID_1_"  overflow="visible"/>
	</clipPath>
	<g clip-path="url(#SVGID_2_)">
		<rect x="30.9" y="320.9" fill="#007A63" width="5" height="106"/>
		<rect x="42.5" y="320.9" fill="#007A63" width="5" height="106"/>
		<rect x="54.2" y="320.9" fill="#007A63" width="5" height="106"/>
		<rect x="65.8" y="320.9" fill="#007A63" width="5" height="106"/>
		<rect x="77.4" y="320.9" fill="#007A63" width="5" height="106"/>
		<rect x="89" y="320.9" fill="#007A63" width="5" height="106"/>
		<rect x="100.7" y="320.9" fill="#007A63" width="5" height="106"/>
		<rect x="112.3" y="320.9" fill="#007A63" width="5" height="106"/>
		<rect x="123.9" y="320.9" fill="#007A63" width="5" height="106"/>
		<rect x="135.5" y="320.9" fill="#007A63" width="5" height="106"/>
	</g>
</g>
<circle id="left_circle" fill="#003A2F" stroke="#007A63" stroke-width="5" stroke-miterlimit="10" cx="31.2" cy="53.7" r="26.3"/>
</svg>
