<?xml version="1.0" encoding="utf-8"?>
<!-- Generator: Adobe Illustrator 25.2.1, SVG Export Plug-In . SVG Version: 6.00 Build 0)  -->
<svg version="1.1" id="Layer_1" xmlns="http://www.w3.org/2000/svg" xmlns:xlink="http://www.w3.org/1999/xlink" x="0px" y="0px"
	 viewBox="0 0 500 500" style="enable-background:new 0 0 500 500;" xml:space="preserve">
<style type="text/css">
	.st0{fill:#66B4F8;}
	.st1{fill:#97D9FF;}
	.st2{fill:#368FC6;}
</style>
<path class="st0" d="M281,410.4L281,410.4c26.6-5.1,51.9-17,72.9-34.5c69.4-57.3,79.3-160.5,21.9-229.9l0,0
	c38.6-31.9,97.3-14,111.4,34.1c8.8,29.9,11.9,61.4,8.8,93.4c-6.3,65.8-37.8,125.1-88.7,167.2c-6.1,5-12.4,9.8-18.9,14.2
	C347.1,482.9,290.5,459.5,281,410.4z"/>
<path class="st0" d="M123.9,354.1c-38.5,31.8-97,13.9-111.2-34c-8.9-29.9-12-61.6-8.9-93.6c6.3-65.8,37.8-125.1,88.7-167.2
	c6.1-5,12.4-9.8,18.9-14.2c41.4-28,98.1-4.7,107.5,44.5l0,0c-26.6,5.1-51.9,17-72.9,34.5c-33.6,27.8-54.4,67-58.6,110.4
	s8.9,85.9,36.7,119.5L123.9,354.1z"/>
<path class="st1" d="M266.1,427.9c-25.6,2.2-51.6-1.1-76.5-10.2c-82.1-29.9-129-114-115-197.2c2.8-17,20.3-27.3,36.4-21.4l0,0
	c12.4,4.5,19.9,17.2,17.7,30.1c-9.8,57.7,22.7,116.2,79.7,136.9c31.1,11.3,64.7,9.8,94.6-4.1c23-10.7,41.8-27.9,54.4-49.4
	c6.7-11.4,20.6-16.5,33-11.9h0c16.1,5.9,22.9,24.9,14.2,39.6c-18.1,31-45.2,55.8-78.5,71.3C306.9,420.7,286.6,426.1,266.1,427.9z"/>
<path class="st1" d="M351.6,178.4c-29.6-41.8-82.6-61.1-132.1-48.1c-12.7,3.3-26-3-31.6-15l0,0c-7.3-15.6,1.5-33.8,18.1-38.2
	c71.2-18.4,147.3,9.2,190,69.2c10,14,5,33.6-10.6,40.9l0,0C373.4,192.8,359.2,189.1,351.6,178.4z"/>
<circle class="st2" cx="250.7" cy="250" r="106.8"/>
<path class="st0" d="M261.8,379.7c-18.3,1.6-37.3-0.7-55.7-7.4c-67.5-24.6-102.4-99.4-77.8-166.9c11.9-32.7,35.8-58.8,67.3-73.5
	s66.9-16.2,99.6-4.3c67.5,24.5,102.4,99.4,77.8,166.9l0,0C355.2,343.6,310.7,375.4,261.8,379.7z M242.7,158.1
	c-10.6,0.9-21.1,3.7-31,8.3c-22.3,10.4-39.2,28.9-47.7,52c-17.4,47.8,7.3,100.8,55.1,118.2s100.8-7.3,118.2-55.1l0,0
	c17.4-47.8-7.3-100.8-55.1-118.2C269.4,158.7,255.9,156.9,242.7,158.1z"/>
</svg>
