<svg version="1.1" xmlns="http://www.w3.org/2000/svg" viewBox="0 0 80 80"><path display="none" d="M49.8,76.1c0-1.3,0-5.6,0-11c0-3.7-1.3-6.2-2.7-7.4c8.9-1,18.3-4.3,18.3-19.7c0-4.3-1.5-7.9-4.1-10.7 c0.4-1,1.8-5.1-0.4-10.6c0,0-3.4-1.1-11,4.1c-3.2-0.8-6.6-1.3-10-1.3s-6.8,0.4-10,1.3c-7.6-5.2-11-4.1-11-4.1 c-2.2,5.5-0.8,9.6-0.4,10.6c-2.5,2.8-4.1,6.3-4.1,10.7c0,15.4,9.3,18.8,18.2,19.8c-1.1,0.9-2.1,2.7-2.5,5.3c-2.2,1-8,2.8-11.6-3.3 c0,0-2.1-3.8-6.1-4.1c0,0-3.9-0.1-0.3,2.4c0,0,2.6,1.3,4.4,5.9c0,0,2.4,7.1,13.5,4.7c0.1,3.3,0.1,6.4,0.1,7.4s-0.7,2.2-2.5,1.9 c3.9,1.3,8.1,2,12.4,2c4.4,0,8.6-0.7,12.5-2C50.5,78.4,49.8,77.2,49.8,76.1z M15.2,57.4c-0.1,0.2-0.4,0.3-0.7,0.1 c-0.3-0.1-0.5-0.4-0.4-0.6c0.1-0.2,0.4-0.3,0.7-0.1C15.1,56.9,15.3,57.2,15.2,57.4z M16.8,59.2c-0.2,0.2-0.6,0.1-0.8-0.2 c-0.3-0.3-0.3-0.7-0.1-0.8c0.2-0.2,0.6-0.1,0.8,0.2S17,59,16.8,59.2z M18.3,61.5c-0.2,0.2-0.6,0-0.9-0.3c-0.2-0.4-0.2-0.8,0-1 s0.6,0,0.9,0.3C18.6,60.9,18.6,61.4,18.3,61.5z M20.5,63.8c-0.2,0.2-0.7,0.2-1-0.2c-0.3-0.3-0.4-0.8-0.2-1c0.2-0.2,0.7-0.2,1,0.2 C20.6,63.1,20.7,63.5,20.5,63.8z M23.5,65c-0.1,0.3-0.5,0.5-1,0.3c-0.5-0.1-0.7-0.5-0.7-0.8c0.1-0.3,0.5-0.5,1-0.3 S23.6,64.7,23.5,65z M26,65.9c-0.5,0-0.9-0.3-0.9-0.6s0.4-0.6,0.9-0.6c0.4,0,0.8,0.3,0.8,0.6S26.4,65.9,26,65.9z M29.1,65.5 c-0.5,0.1-0.9-0.1-1-0.4s0.3-0.7,0.7-0.7c0.5-0.2,0.9,0,1,0.4C29.9,65.1,29.5,65.5,29.1,65.5z"/><path fill="#66b4f8" d="M40,1C17.9,1,0,18.9,0,41c0,17.7,11.5,32.7,27.4,38c2,0.4,2.7-0.9,2.7-1.9s0-4.1-0.1-7.4 C18.9,72.1,16.5,65,16.5,65c-1.8-4.6-4.4-5.9-4.4-5.9c-3.6-2.5,0.3-2.4,0.3-2.4c4,0.3,6.1,4.1,6.1,4.1c3.6,6.1,9.4,4.3,11.6,3.3 c0.4-2.6,1.4-4.4,2.5-5.3c-8.9-1-18.2-4.4-18.2-19.8c0-4.4,1.6-7.9,4.1-10.7c-0.4-1-1.8-5.1,0.4-10.6c0,0,3.4-1.1,11,4.1 c3.2-0.9,6.6-1.3,10-1.3s6.8,0.5,10,1.3c7.6-5.2,11-4.1,11-4.1c2.2,5.5,0.8,9.6,0.4,10.6c2.6,2.8,4.1,6.4,4.1,10.7 c0,15.4-9.4,18.7-18.3,19.7c1.4,1.2,2.7,3.7,2.7,7.4c0,5.4,0,9.7,0,11c0,1.1,0.7,2.3,2.7,1.9C68.6,73.6,80,58.7,80,41 C80,18.9,62.1,1,40,1z"/> <path fill="#66b4f8" d="M15.2,58.4c-0.1,0.2-0.4,0.3-0.7,0.1c-0.3-0.1-0.5-0.4-0.4-0.6c0.1-0.2,0.4-0.3,0.7-0.1 C15.1,57.9,15.3,58.2,15.2,58.4L15.2,58.4z"/> <path fill="#66b4f8" d="M16.8,60.2c-0.2,0.2-0.6,0.1-0.8-0.2c-0.3-0.3-0.3-0.7-0.1-0.8c0.2-0.2,0.6-0.1,0.8,0.2S17,60,16.8,60.2 L16.8,60.2z"/> <path fill="#66b4f8" d="M18.3,62.5c-0.2,0.2-0.6,0-0.9-0.3c-0.2-0.4-0.2-0.8,0-1s0.6,0,0.9,0.3C18.6,61.9,18.6,62.4,18.3,62.5 L18.3,62.5z"/> <path fill="#66b4f8" d="M20.5,64.8c-0.2,0.2-0.7,0.2-1-0.2c-0.3-0.3-0.4-0.8-0.2-1c0.2-0.2,0.7-0.2,1,0.2 C20.6,64.1,20.7,64.5,20.5,64.8L20.5,64.8z"/> <path fill="#66b4f8" d="M23.5,66c-0.1,0.3-0.5,0.5-1,0.3c-0.5-0.1-0.7-0.5-0.7-0.8c0.1-0.3,0.5-0.5,1-0.3C23.3,65.4,23.6,65.7,23.5,66 L23.5,66z"/> <path fill="#66b4f8" d="M26.8,66.3c0,0.3-0.4,0.6-0.8,0.6c-0.5,0-0.9-0.3-0.9-0.6c0-0.3,0.4-0.6,0.9-0.6C26.4,65.7,26.8,66,26.8,66.3 L26.8,66.3z"/> <path fill="#66b4f8" d="M29.8,65.8c0.1,0.3-0.3,0.7-0.7,0.7c-0.5,0.1-0.9-0.1-1-0.4s0.3-0.7,0.7-0.7C29.3,65.2,29.7,65.4,29.8,65.8 L29.8,65.8z"/></svg>