<?xml version="1.0" encoding="utf-8"?>
<!-- Generator: Adobe Illustrator 25.2.1, SVG Export Plug-In . SVG Version: 6.00 Build 0)  -->
<svg version="1.1" id="Layer_1" xmlns="http://www.w3.org/2000/svg" xmlns:xlink="http://www.w3.org/1999/xlink" x="0px" y="0px"
	 viewBox="0 0 800 800" style="enable-background:new 0 0 800 800;" xml:space="preserve">
<style type="text/css">
	.st0{fill:#97D9FF;}
	.st1{fill:#368FC6;}
	.st2{opacity:0.46;}
	.st3{fill:none;stroke:#368FC6;stroke-width:10.2508;stroke-miterlimit:10;}
	.st4{fill:none;stroke:#368FC6;stroke-width:10.2507;stroke-miterlimit:9.9999;}
	.st5{fill:none;stroke:#97D9FF;stroke-width:10.2504;stroke-miterlimit:9.9996;}
	.st6{fill:#66B4F8;}
</style>
<path id="paint_splatter" class="st0" d="M604.5,566.4c30.4-41.7,79.6-69.1,130.4-87.1c44.8-15.9,69.8-63.8,56.9-109.5
	c-42.6-152-248.3-251.4-418.1-224.3C230.9,168.3,807.3,397.3,32,279.7c-11.1-1.7-94.4,255,310.5,368.6c13.6,3.8,26.9,6.9,40,9.8
	c79.1,17.5,161.4-12.3,210.6-76.6C596.9,576.7,600.7,571.6,604.5,566.4z M514.1,240.6c8.6-30.6,40.3-48.4,70.9-39.8
	c30.6,8.6,48.4,40.3,39.8,70.9c-8.6,30.6-40.3,48.4-70.9,39.8C523.4,302.9,505.6,271.2,514.1,240.6z"/>
<path id="shadow" class="st1" d="M331.5,140c-180,10.2-267,99.4-267,222s171.4,313.8,321.3,213.8c79.8-53.2-373.9-219.6,266.8-177.6
	C775,406.1,792.8,113.9,331.5,140z"/>
<polygon id="colors" class="st0" points="67.9,271.3 230.6,186.6 370.7,158.1 569.5,182.6 599.6,246.1 562.7,319.2 311.1,319.2 
	209.6,412.3 52,402.1 52,329.2 "/>
<g id="colors_stroke" class="st2">
	<circle class="st3" cx="162.6" cy="309.4" r="63.3"/>
	
		<ellipse transform="matrix(0.1602 -0.9871 0.9871 0.1602 188.6832 699.9706)" class="st3" cx="505.7" cy="239.1" rx="37.6" ry="37.6"/>
	<ellipse class="st4" cx="340.4" cy="231.6" rx="48.9" ry="48.9"/>
</g>
<ellipse id="palette_hole_stroke" class="st5" cx="239.1" cy="498.1" rx="47.1" ry="47.1"/>
<path id="palette_1_" class="st6" d="M331.2,138.6C151.3,149.5,4.8,238,4.8,360.6C4.8,483.1,238.4,693,387,590.9
	c94.3-64.8-370-272.4,270.7-230.4C780,368.6,750.1,113.3,331.2,138.6z M99.3,309.4c0-35,28.4-63.3,63.3-63.3s63.3,28.4,63.3,63.3
	c0,35-28.4,63.3-63.3,63.3S99.3,344.4,99.3,309.4z M239.1,545.2c-26,0-47.1-21.1-47.1-47.1c0-26,21.1-47.1,47.1-47.1
	s47.1,21.1,47.1,47.1C286.2,524.1,265.1,545.2,239.1,545.2z M340.4,280.5c-27,0-48.9-21.9-48.9-48.9s21.9-48.9,48.9-48.9
	s48.9,21.9,48.9,48.9S367.4,280.5,340.4,280.5z M505.7,276.7c-20.8,0-37.6-16.8-37.6-37.6s16.8-37.6,37.6-37.6
	c20.8,0,37.6,16.8,37.6,37.6S526.5,276.7,505.7,276.7z"/>
</svg>
