<?xml version="1.0" encoding="utf-8"?>
<!-- Generator: Adobe Illustrator 18.0.0, SVG Export Plug-In . SVG Version: 6.00 Build 0)  -->
<!DOCTYPE svg PUBLIC "-//W3C//DTD SVG 1.1//EN" "http://www.w3.org/Graphics/SVG/1.1/DTD/svg11.dtd">
<svg version="1.1" id="Layer_1" xmlns="http://www.w3.org/2000/svg" xmlns:xlink="http://www.w3.org/1999/xlink" x="0px" y="0px"
	 viewBox="0 0 800 800" enable-background="new 0 0 800 800" xml:space="preserve">
<path fill="#494949" d="M737.8,762.1L534,282.7h-71.4c-7,0-12.7-5.7-12.7-12.7V133.6c0-7,5.7-12.7,12.7-12.7h2.6L422,19.2
	c-8.2-19.4-35.7-19.4-44,0L62.2,762.1c-6.7,15.7,4.9,33.2,22,33.2h631.6C732.9,795.3,744.5,777.9,737.8,762.1z"/>
<path fill="#303030" d="M737.8,762.1L534,282.7h-71.4c-7,0-12.7-5.7-12.7-12.7V133.6c0-7,5.7-12.7,12.7-12.7h2.6L422,19.2
	c-8.2-19.4-35.7-19.4-44,0L142.3,573.9c-44.6,105,32.4,221.5,146.5,221.5h427C732.9,795.3,744.5,777.9,737.8,762.1z"/>
<path d="M737.8,762.1L534,282.7h-71.4c-7,0-12.7-5.7-12.7-12.7V133.6c0-7,5.7-12.7,12.7-12.7h2.6L422,19.2c-8.2-19.4-35.7-19.4-44,0
	L227,374.5C142.2,574,288.6,795.3,505.4,795.3h210.4C732.9,795.3,744.5,777.9,737.8,762.1z"/>
<path d="M582.5,261.5H479.1c-4.4,0-8-3.6-8-8V150.1c0-4.4,3.6-8,8-8h103.4c4.4,0,8,3.6,8,8v103.4
	C590.5,257.9,586.9,261.5,582.5,261.5z"/>
</svg>
