<svg xmlns="http://www.w3.org/2000/svg" viewBox="0 0 36 80"><path fill="#66b4f8" d="M17.8,0.8l2.1,4c0.5,0.7,1,1.4,1.6,2c1.8,1.8,3.4,3.6,4.9,5.6c3.6,4.7,6,9.9,7.7,15.5c1,3.4,1.6,7,1.6,10.5 c0.2,10.7-3.5,19.8-10.9,27.4c-1.2,1.2-2.5,2.3-3.9,3.3c-0.7,0-1.1-0.6-1.4-1.1c-0.5-1-0.9-2-1.1-3.1c-0.3-1.3-0.4-2.6-0.3-3.9v-0.6 C18.1,60.2,17.5,1.1,17.8,0.8L17.8,0.8z"/><path fill="#97d9ff" d="M17.8,0.6c-0.1-0.2-0.2,0-0.3,0c0,0.9-0.3,1.6-0.7,2.4c-0.5,0.7-1.2,1.3-1.9,1.9c-3.8,3.3-6.8,7.3-9.2,11.8 c-3.2,6-4.9,12.5-5.3,19.3c-0.2,2.5,0.8,11.1,1.5,13.6c2.1,6.6,5.9,12.2,10.8,17c1.2,1.2,2.5,2.2,3.8,3.3c0.4,0,0.4-0.3,0.5-0.6 c0.2-0.5,0.3-1.1,0.4-1.7l0.9-6.4L17.8,0.6z"/><path fill="#c2bfbf" d="M19.9,71.7c0.1-1,0.6-1.8,1.1-2.6c-0.5-0.2-0.9-0.6-1.2-1.1s-0.5-0.9-0.6-1.4c-0.6-1.8-0.7-3.7-0.9-5.5V60 C18,60,18,61.5,18,61.7c-0.1,2-0.4,3.9-0.8,5.8c-0.1,0.8-0.2,1.5-0.7,2.2c0,0.1,0,0.2,0,0.3c0.8,2.3,1,4.6,1.1,7v0.9 c0,1,0,0.8,0.8,1.2c0.3,0.1,0.7,0.2,1.1,0.4c0.3,0,0.3-0.2,0.3-0.4l-0.1-1.4v-4C19.7,73,19.8,72.3,19.9,71.7L19.9,71.7z"/></svg>