<?xml version="1.0" encoding="utf-8"?>
<!-- Generator: Adobe Illustrator 18.0.0, SVG Export Plug-In . SVG Version: 6.00 Build 0)  -->
<!DOCTYPE svg PUBLIC "-//W3C//DTD SVG 1.1//EN" "http://www.w3.org/Graphics/SVG/1.1/DTD/svg11.dtd">
<svg version="1.1" id="Layer_1" xmlns="http://www.w3.org/2000/svg" xmlns:xlink="http://www.w3.org/1999/xlink" x="0px" y="0px"
	 viewBox="0 0 436 379.3" enable-background="new 0 0 436 379.3" xml:space="preserve">
<path id="triangle_bottom" fill="#1F1044" d="M263.1,12.2c-3.5-8.2-15.1-8.2-18.6,0L111.1,326.1c-2.8,6.7,2.1,14,9.3,14h266.8
	c7.2,0,12.1-7.4,9.3-14"/>
<path id="triangle_middle" fill="#2C1459" d="M263.1,12.2c-3.5-8.2-15.1-8.2-18.6,0l-99.6,234.3c-18.9,44.4,13.7,93.6,61.9,93.6
	h180.4c7.2,0,12.1-7.4,9.3-14"/>
<path id="triangle_top" fill="#3E1977" d="M263.1,12.2c-3.5-8.2-15.1-8.2-18.6,0l-63.8,150.1c-35.8,84.3,26,177.8,117.6,177.8h88.9
	c7.2,0,12.1-7.4,9.3-14"/>
<path id="pixel_1_shadow" fill="#1F1044" d="M126.8,77.5H97.2c-1.8,0-3.2-1.4-3.2-3.2V44.7c0-1.8,1.4-3.2,3.2-3.2h29.6
	c1.8,0,3.2,1.4,3.2,3.2v29.6C130,76.1,128.6,77.5,126.8,77.5z"/>
<path id="pixel_1" fill="#3E1977" d="M131.8,72.5h-29.6c-1.8,0-3.2-1.4-3.2-3.2V39.7c0-1.8,1.4-3.2,3.2-3.2h29.6
	c1.8,0,3.2,1.4,3.2,3.2v29.6C135,71.1,133.6,72.5,131.8,72.5z"/>
<path id="pixel_2_shadow" fill="#1F1044" d="M73.4,251.4H49.2c-1.7,0-3-1.3-3-3v-24.2c0-1.7,1.3-3,3-3h24.2c1.7,0,3,1.3,3,3v24.2
	C76.4,250.1,75.1,251.4,73.4,251.4z"/>
<path id="pixel_2" fill="#3E1977" d="M68.4,246.4H44.2c-1.7,0-3-1.3-3-3v-24.2c0-1.7,1.3-3,3-3h24.2c1.7,0,3,1.3,3,3v24.2
	C71.4,245.1,70.1,246.4,68.4,246.4z"/>
<path id="pixel_3_shadow" fill="#1F1044" d="M391.7,97.8h-26c-1.9,0-3.5-1.6-3.5-3.5v-26c0-1.9,1.6-3.5,3.5-3.5h26
	c1.9,0,3.5,1.6,3.5,3.5v26C395.2,96.2,393.6,97.8,391.7,97.8z"/>
<path id="pixel_3" fill="#3E1977" d="M386.7,102.8h-26c-1.9,0-3.5-1.6-3.5-3.5v-26c0-1.9,1.6-3.5,3.5-3.5h26c1.9,0,3.5,1.6,3.5,3.5
	v26C390.2,101.2,388.6,102.8,386.7,102.8z"/>
</svg>
