<?xml version="1.0" encoding="utf-8"?>
<!-- Generator: Adobe Illustrator 18.0.0, SVG Export Plug-In . SVG Version: 6.00 Build 0)  -->
<!DOCTYPE svg PUBLIC "-//W3C//DTD SVG 1.1//EN" "http://www.w3.org/Graphics/SVG/1.1/DTD/svg11.dtd">
<svg version="1.1" id="Layer_1" xmlns="http://www.w3.org/2000/svg" xmlns:xlink="http://www.w3.org/1999/xlink" x="0px" y="0px"
	 viewBox="0 0 80 80" enable-background="new 0 0 80 80" xml:space="preserve">
<path fill="#FFFFFF" d="M68,16.8H47.9c1.5-1.7,2.4-4,2.4-6.5c0-5.5-4.5-10-10-10s-10,4.5-10,10c0,2.5,0.9,4.8,2.4,6.5H12
	c-1.9,0-3.5,1.6-3.5,3.5v21.6c1.7-1.5,4-2.4,6.5-2.4c5.5,0,10,4.5,10,10c0,5.5-4.5,10-10,10c-2.5,0-4.8-0.9-6.5-2.4v19.3
	c0,1.9,1.6,3.5,3.5,3.5h56c1.9,0,3.5-1.6,3.5-3.5v-56C71.5,18.3,69.9,16.8,68,16.8z"/>
</svg>
