<svg aria-hidden="true" focusable="false" data-prefix="fad" data-icon="server" role="img" xmlns="http://www.w3.org/2000/svg" viewBox="0 0 512 512" class="svg-inline--fa fa-server fa-w-16 fa-7x"><g class="fa-group"><path fill="#97d9ff" d="M432 120a24 24 0 1 0-24-24 24 24 0 0 0 24 24zm0 272a24 24 0 1 0 24 24 24 24 0 0 0-24-24zm48-200H32a32 32 0 0 0-32 32v64a32 32 0 0 0 32 32h448a32 32 0 0 0 32-32v-64a32 32 0 0 0-32-32zm-112 88a24 24 0 1 1 24-24 24 24 0 0 1-24 24zm64 0a24 24 0 1 1 24-24 24 24 0 0 1-24 24z" class="fa-secondary"></path><path fill="#66b4f8" d="M456 256a24 24 0 1 0-24 24 24 24 0 0 0 24-24zm24-224H32A32 32 0 0 0 0 64v64a32 32 0 0 0 32 32h448a32 32 0 0 0 32-32V64a32 32 0 0 0-32-32zm-112 88a24 24 0 1 1 24-24 24 24 0 0 1-24 24zm64 0a24 24 0 1 1 24-24 24 24 0 0 1-24 24zm48 232H32a32 32 0 0 0-32 32v64a32 32 0 0 0 32 32h448a32 32 0 0 0 32-32v-64a32 32 0 0 0-32-32zm-112 88a24 24 0 1 1 24-24 24 24 0 0 1-24 24zm64 0a24 24 0 1 1 24-24 24 24 0 0 1-24 24z" class="fa-primary"></path></g></svg>