<svg xmlns="http://www.w3.org/2000/svg" viewBox="0 0 80 80"><path fill="#66b4f8" d="M0,40V0h80v80H0"/><path fill="#ffffff" d="M17.5,40.1v3.3h10.4V73h7.4V43.4h10.4v-3.2c0-1.8,0-3.3-0.1-3.3c0-0.1-6.3-0.1-14-0.1l-14,0.1L17.5,40.1 L17.5,40.1L17.5,40.1z M64.3,36.8c2,0.5,3.6,1.4,5,2.9c0.7,0.8,1.8,2.2,1.9,2.6c0,0.1-3.5,2.5-5.6,3.8c-0.1,0.1-0.4-0.3-0.7-0.8 c-1-1.5-2.1-2.1-3.8-2.2c-2.4-0.2-4,1.1-4,3.2c0,0.6,0.1,1,0.4,1.5c0.5,1.1,1.5,1.8,4.6,3.1c5.7,2.5,8.2,4.1,9.7,6.4 c1.7,2.6,2.1,6.7,0.9,9.7c-1.3,3.3-4.4,5.6-8.9,6.3c-1.4,0.2-4.6,0.2-6.1-0.1c-3.2-0.6-6.3-2.2-8.1-4.3c-0.7-0.8-2.2-2.9-2.1-3.1 l0.8-0.5l3-1.7l2.3-1.3l0.5,0.7c0.7,1,2.1,2.4,3,2.9c2.6,1.3,6.1,1.2,7.8-0.4c0.7-0.7,1.1-1.4,1.1-2.4c0-0.9-0.1-1.3-0.6-2 c-0.6-0.9-1.9-1.6-5.5-3.2c-4.1-1.8-5.9-2.9-7.5-4.6c-0.9-1-1.8-2.7-2.2-4c-0.3-1.2-0.4-4-0.1-5.1c0.9-4,3.9-6.8,8.2-7.6 C59.6,36.3,62.9,36.4,64.3,36.8L64.3,36.8L64.3,36.8z"/></svg>